{
	"asset":{
		"version":"2.0",
		"generator":"Houdini GLTF 2.0 Exporter"
	},
	"accessors":[
		{
			"bufferView":0,
			"componentType":5123,
			"count":594,
			"type":"SCALAR",
			"min":[0
			],
			"max":[199
			]
		},
		{
			"bufferView":1,
			"componentType":5126,
			"count":200,
			"type":"VEC3",
			"min":[-1,-1,0
			],
			"max":[1,1,0
			]
		},
		{
			"bufferView":2,
			"componentType":5126,
			"count":200,
			"type":"VEC2",
			"min":[0,0
			],
			"max":[1,1
			]
		}
	],
	"buffers":[
		{
			"uri":"water_plane_data.bin",
			"byteLength":5188,
			"name":"main_buffer"
		}
	],
	"bufferViews":[
		{
			"buffer":0,
			"byteLength":1188,
			"target":34963
		},
		{
			"buffer":0,
			"byteOffset":1188,
			"byteLength":2400,
			"target":34962
		},
		{
			"buffer":0,
			"byteOffset":3588,
			"byteLength":1600,
			"target":34962
		}
	],
	"nodes":[
		{
			"name":"water_grid",
			"mesh":0
		}
	],
	"meshes":[
		{
			"primitives":[
				{
					"attributes":{
						"TEXCOORD_0":2,
						"POSITION":1
					},
					"indices":0
				}
			]
		}
	],
	"scenes":[
		{
			"nodes":[0
			]
		}
	],
	"scene":0
}
