<svg xmlns="http://www.w3.org/2000/svg" viewBox="0 0 490.35 1027.03"><defs><style>.orange-fill{fill:#ff1900;}</style></defs><g id="Layer_2" data-name="Layer 2"><g id="Layer_1-2" data-name="Layer 1"><path class="orange-fill" d="M338.24,179.6H260.79v-2.24l32.55-44.9V47.14L260.79,2.24V0h77.45Zm48.27-53.43h-1.79L350.37,89.8l34.35-37h1.79Zm31.43-65.33h-2L357.55,0h60.39Zm5.62,118.76H360.92l60.39-65.78h2.25Z"/><path class="orange-fill" d="M87,468.56a87.51,87.51,0,0,1-43.78-37.49,101.81,101.81,0,0,1-10.78-26.83,124.21,124.21,0,0,1-3.59-30,121.57,121.57,0,0,1,3.59-29.75A98.71,98.71,0,0,1,43.28,318a90.53,90.53,0,0,1,18.19-21.77A87.67,87.67,0,0,1,87,280.88Zm85.31-118.09H170l-60.39-65.78h62.64Zm0,113.83H109.62L170,398.52h2.25Z"/><path class="orange-fill" d="M74.31,740.73H0v-2.24l37.27-48,37,48Zm133.36,0H90.48v-2.24l31.2-44.9L79.25,604.46l26.94-48.94,65.33,138.07,36.15,44.9Z"/><path class="orange-fill" d="M322.08,740.73H244.63v-2.24l32.55-44.9V608.27l-32.55-44.9v-2.24h77.45Zm95-135.83a43.41,43.41,0,0,1-12,29.87A49.26,49.26,0,0,1,390,645.32a63.35,63.35,0,0,1-21.21,5.38V558.88a62.5,62.5,0,0,1,21.1,5.39,50.11,50.11,0,0,1,15,10.66,43.73,43.73,0,0,1,9.1,14.15A43.08,43.08,0,0,1,417.05,604.9Zm22.67,135.83H369V666.64h2.25l68.47,71.85Z"/><path class="orange-fill" d="M72.85,1027a87.51,87.51,0,0,1-43.78-37.49A101.59,101.59,0,0,1,18.3,962.71a123.84,123.84,0,0,1-3.6-30A121.09,121.09,0,0,1,18.3,903,98.06,98.06,0,0,1,29.19,876.5a90.3,90.3,0,0,1,18.18-21.78,87.89,87.89,0,0,1,25.48-15.38ZM193,932.74a124.33,124.33,0,0,1-3.59,30,99.85,99.85,0,0,1-10.89,26.83,91.63,91.63,0,0,1-18.19,22A86.65,86.65,0,0,1,134.81,1027V839.34a87.89,87.89,0,0,1,25.48,15.38,90.57,90.57,0,0,1,18.19,21.78A98.71,98.71,0,0,1,189.37,903,121.57,121.57,0,0,1,193,932.74Z"/><path class="orange-fill" d="M421,324.32H263.37v-40H421ZM397.18,464h-110v-2.24l32.55-44.91V356.2h44.91v60.61l32.55,44.91Z"/><path class="orange-fill" d="M472.75,856.73l-2.63-1.41v7.06l1,1.26h-4.22l1-1.26v-7.06l-2.63,1.42v-2.22h7.55Z"/><path class="orange-fill" d="M480,863.64l1-1.26v-4.82l-2.62,4.17-2.69-4.22v4.87l1,1.26h-3.05l1-1.26V856l-.72-.72L476,854l3.06,4.85,1.91-3-1-1.25h4.22l-1,1.27v6.59l1,1.26H480"/><path class="orange-fill" d="M474.7,874.45a15.65,15.65,0,1,1,15.65-15.65A15.66,15.66,0,0,1,474.7,874.45Zm0-29.64a14,14,0,1,0,14,14A14,14,0,0,0,474.7,844.81Z"/><polygon class="orange-fill" points="75.17 168.74 75.17 168.74 31.31 111.82 31.31 146.66 7.5 177.36 7.5 179.6 81.81 179.6 81.81 177.36 75.17 168.74"/><polygon class="orange-fill" points="175.71 126.32 60.4 0 0.86 0 0.86 2.24 164.2 181.85 175.71 181.84 175.71 126.32"/><polygon class="orange-fill" points="132.77 0 132.77 2.24 169.81 50.29 207.08 2.24 207.08 0 132.77 0"/><polygon class="orange-fill" points="314.48 1011.9 314.48 1011.9 270.62 954.98 270.62 989.82 246.81 1020.52 246.81 1022.76 321.12 1022.76 321.12 1020.52 314.48 1011.9"/><polygon class="orange-fill" points="415.02 969.48 299.71 843.16 240.17 843.16 240.17 845.4 403.51 1025.01 415.02 1025 415.02 969.48"/><polygon class="orange-fill" points="372.08 843.16 372.08 845.4 409.12 893.45 446.39 845.4 446.39 843.16 372.08 843.16"/></g></g></svg>