<svg xmlns="http://www.w3.org/2000/svg" viewBox="0 0 695.6 76.2"><defs><style>.orange-fill{fill:#ff1900;}</style></defs><g data-name="Layer 2"><path class="orange-fill" d="M689 7.4l-1-0.5V9.6l0.4h-1.6l0.4-0.5V6.9l-1 0.5V6.6H689Z"/><path class="orange-fill" d="M691.7 10.1l0.4-0.5V7.8l-1 1.6-1-1.6V9.6l0.4h-1.2l0.4-0.5V7.2l-0.3-0.3-0.5 1.2 1.8-1.1-0.4-0.5h1.6l-0.4V9.6l0.4h-1.6"/><path class="orange-fill" d="M689.7 14.2a5.9 5.9 0 1 1 5.9-5.9A5.9 5.9 0 0 1 689.7 14.2Zm0-11.2A5.3 5.3 0 1 0 695 8.2 5.3 5.3 0 0 0 689.7 2.9Z"/><polygon class="orange-fill" points="98.1 2.3 98.1 3.2 111.2 21.2 111.2 55.5 98.1 73.6 98.1 74.5 129.2 74.5 129.2 2.3 98.1 2.3"/><polygon class="orange-fill" points="147.9 23.5 134.1 38.4 147.9 53 148.6 53 148.6 23.5 147.9 23.5"/><polygon class="orange-fill" points="137 2.3 160.4 26.7 161.3 26.7 161.3 2.3 137 2.3"/><polygon class="orange-fill" points="163.5 74.5 163.5 48 162.6 48 138.3 74.5 163.5 74.5"/><path class="orange-fill" d="M195.6 6.9a36.2 36.2 0 0 0-7.3 8.8 39.3 39.3 0 0 0-4.4 10.6 49 49 0 0 0-1.4 12 50 50 0 0 0 1.4 12.1 41 41 0 0 0 4.3 10.8 35.2 35.2 0 0 0 17.6 15.1V0.7A35.4 35.4 0 0 0 195.6 6.9Z"/><polygon class="orange-fill" points="240.2 28.7 240.2 2.3 215 2.3 239.3 28.7 240.2 28.7"/><polygon class="orange-fill" points="240.2 74.5 240.2 48 239.3 48 215 74.5 240.2 74.5"/><polygon class="orange-fill" points="358.4 74.5 358.4 73.6 343.5 54.2 328.5 73.6 328.5 74.5 358.4 74.5"/><polygon class="orange-fill" points="360.4 19.7 377.4 55.5 364.9 73.6 364.9 74.5 412 74.5 412 73.6 397.4 55.5 371.2 0 360.4 19.7"/><polygon class="orange-fill" points="424.9 2.3 424.9 3.2 438 21.2 438 55.5 424.9 73.6 424.9 74.5 456.1 74.5 456.1 2.3 424.9 2.3"/><path class="orange-fill" d="M489.4 31.9a17.3 17.3 0 0 0 0-24 19.9 19.9 0 0 0-6-4.3 25.2 25.2 0 0 0-8.5-2.2V38.3a25.5 25.5 0 0 0 8.5-2.2A19.9 19.9 0 0 0 489.4 31.9Z"/><polygon class="orange-fill" points="503.4 74.5 503.4 73.6 475.8 44.7 474.9 44.7 474.9 74.5 503.4 74.5"/><path class="orange-fill" d="M518.1 15.7a39.3 39.3 0 0 0-4.4 10.6 49 49 0 0 0-1.4 12 50 50 0 0 0 1.4 12.1 41 41 0 0 0 4.3 10.8 35.2 35.2 0 0 0 17.6 15.1V0.7A35.5 35.5 0 0 0 525.4 6.9 36.2 36.2 0 0 0 518.1 15.7Z"/><path class="orange-fill" d="M570.8 69.9a36.6 36.6 0 0 0 7.3-8.8 40.4 40.4 0 0 0 4.4-10.8 50 50 0 0 0 1.4-12 49 49 0 0 0-1.4-12 39.9 39.9 0 0 0-4.4-10.6A36.4 36.4 0 0 0 570.8 6.9 35.5 35.5 0 0 0 560.6V76.2A34.6 34.6 0 0 0 570.8 69.9Z"/><polygon class="orange-fill" points="29.9 70.1 29.9 70.1 12.2 47.2 12.2 61.2 2.7 73.6 2.7 74.5 32.5 74.5 32.5 73.6 29.9 70.1"/><polygon class="orange-fill" points="70.3 53 23.9 2.3 0 2.3 0 3.2 65.7 75.4 70.3 75.4 70.3 53"/><polygon class="orange-fill" points="53 2.3 53 3.2 67.9 22.5 82.9 3.2 82.9 2.3 53 2.3"/><polygon class="orange-fill" points="660 75.4 664.6 75.4 664.6 53 618.2 2.3 594.3 2.3 594.3 3.2 660 75.4"/><polygon class="orange-fill" points="663.1 22.5 678.1 3.2 678.1 2.3 648.2 2.3 648.2 3.2 663.1 22.5"/><rect class="orange-fill" x="260.9" y="2.1" width="63.4" height="16.1"/><polygon class="orange-fill" points="270.5 73.4 270.5 74.3 314.7 74.3 314.7 73.4 301.6 55.4 301.6 31 283.6 31 283.6 55.4 270.5 73.4"/><polygon class="orange-fill" points="607.4 47.2 607.4 61.2 597.9 73.6 597.9 74.5 627.7 74.5 627.7 73.6 625 70.1 607.4 47.2"/></g></svg>