<svg xmlns="http://www.w3.org/2000/svg" viewBox="0 0 695.61 76.16"><defs><style>.cls-1{fill:#ff1900;}</style></defs><g id="Layer_2" data-name="Layer 2"><g id="Imagery"><path class="cls-1" d="M689,7.44l-1-.53V9.58l.37.48h-1.6l.37-.48V6.91l-1,.54V6.61H689Z"/><path class="cls-1" d="M691.69,10.06l.36-.48V7.76l-1,1.57-1-1.59V9.58l.37.48h-1.16l.37-.48V7.16l-.28-.27.83-.49,1.16,1.83.72-1.15-.36-.47h1.59l-.36.48V9.58l.36.48h-1.59"/><path class="cls-1" d="M689.69,14.15a5.92,5.92,0,1,1,5.92-5.92A5.93,5.93,0,0,1,689.69,14.15Zm0-11.22A5.3,5.3,0,1,0,695,8.23,5.31,5.31,0,0,0,689.69,2.93Z"/><polygon class="cls-1" points="98.09 2.26 98.09 3.16 111.17 21.2 111.17 55.5 98.09 73.55 98.09 74.45 129.22 74.45 129.22 2.26 98.09 2.26"/><polygon class="cls-1" points="147.9 23.46 134.09 38.35 147.9 52.97 148.62 52.97 148.62 23.46 147.9 23.46"/><polygon class="cls-1" points="136.98 2.26 160.44 26.71 161.25 26.71 161.25 2.26 136.98 2.26"/><polygon class="cls-1" points="163.51 74.45 163.51 48.01 162.61 48.01 138.34 74.45 163.51 74.45"/><path class="cls-1" d="M195.62,6.9a36.2,36.2,0,0,0-7.31,8.76,39.25,39.25,0,0,0-4.38,10.64,49,49,0,0,0-1.44,12,50,50,0,0,0,1.44,12.05,41,41,0,0,0,4.33,10.78,35.19,35.19,0,0,0,17.6,15.07V.72A35.41,35.41,0,0,0,195.62,6.9Z"/><polygon class="cls-1" points="240.15 28.7 240.15 2.26 214.97 2.26 239.25 28.7 240.15 28.7"/><polygon class="cls-1" points="240.15 74.45 240.15 48.01 239.25 48.01 214.97 74.45 240.15 74.45"/><polygon class="cls-1" points="358.37 74.45 358.37 73.55 343.48 54.23 328.5 73.55 328.5 74.45 358.37 74.45"/><polygon class="cls-1" points="360.35 19.67 377.41 55.5 364.86 73.55 364.86 74.45 411.97 74.45 411.97 73.55 397.44 55.5 371.18 0 360.35 19.67"/><polygon class="cls-1" points="424.94 2.26 424.94 3.16 438.03 21.2 438.03 55.5 424.94 73.55 424.94 74.45 456.07 74.45 456.07 2.26 424.94 2.26"/><path class="cls-1" d="M489.42,31.85a17.33,17.33,0,0,0-.05-24,19.94,19.94,0,0,0-6-4.29,25.18,25.18,0,0,0-8.48-2.17V38.26a25.54,25.54,0,0,0,8.52-2.16A19.85,19.85,0,0,0,489.42,31.85Z"/><polygon class="cls-1" points="503.36 74.45 503.36 73.55 475.84 44.67 474.94 44.67 474.94 74.45 503.36 74.45"/><path class="cls-1" d="M518.1,15.66a39.25,39.25,0,0,0-4.38,10.64,49,49,0,0,0-1.44,12,50,50,0,0,0,1.44,12.05,41,41,0,0,0,4.33,10.78,35.19,35.19,0,0,0,17.6,15.07V.72A35.54,35.54,0,0,0,525.41,6.9,36.2,36.2,0,0,0,518.1,15.66Z"/><path class="cls-1" d="M570.8,69.93a36.62,36.62,0,0,0,7.31-8.84,40.41,40.41,0,0,0,4.38-10.78,50,50,0,0,0,1.44-12.05,49,49,0,0,0-1.44-12,39.9,39.9,0,0,0-4.38-10.64A36.43,36.43,0,0,0,570.8,6.9,35.54,35.54,0,0,0,560.56.72V76.16A34.59,34.59,0,0,0,570.8,69.93Z"/><polygon class="cls-1" points="29.87 70.08 29.87 70.08 12.24 47.2 12.24 61.21 2.67 73.55 2.67 74.45 32.54 74.45 32.54 73.55 29.87 70.08"/><polygon class="cls-1" points="70.28 53.03 23.93 2.26 0 2.26 0 3.16 65.65 75.35 70.28 75.35 70.28 53.03"/><polygon class="cls-1" points="53.02 2.26 53.02 3.16 67.91 22.47 82.89 3.16 82.89 2.26 53.02 2.26"/><polygon class="cls-1" points="659.95 75.35 664.58 75.35 664.58 53.03 618.23 2.26 594.3 2.26 594.3 3.16 659.95 75.35"/><polygon class="cls-1" points="663.1 22.47 678.08 3.16 678.08 2.26 648.21 2.26 648.21 3.16 663.1 22.47"/><rect class="cls-1" x="260.92" y="2.12" width="63.35" height="16.06"/><polygon class="cls-1" points="270.48 73.41 270.48 74.31 314.7 74.31 314.7 73.41 301.61 55.36 301.61 31 283.56 31 283.56 55.36 270.48 73.41"/><polygon class="cls-1" points="607.42 47.2 607.42 61.21 597.85 73.55 597.85 74.45 627.72 74.45 627.72 73.55 625.04 70.07 607.42 47.2"/></g></g></svg>