<svg xmlns="http://www.w3.org/2000/svg" viewBox="0 0 239.51 623.82"><defs><style>.cls-1{fill:#231f20;}</style></defs><g id="Layer_2" data-name="Layer 2"><g id="Layer_1-2" data-name="Layer 1"><path class="cls-1" d="M233,272.37c-6.66-14.2-31.2-34-45.33-42.17-3.18-1.84-3.86-6.25-3.82-9.92.28-24.29-.16-44.92-2.43-69.12-2.07-22.2-5.1-45.39-12.41-66.55-2-5.67-4.77-11.56-4.47-17.71s3.73-11.69,4.8-17.72c1.36-7.68-1-15.57-2.83-23.24h.17a7,7,0,0,0,6.74-9l-.84-3c-2.37-8.3-11.82-14-20.46-14H87.41C78.77,0,69.32,5.73,67,14l-.84,3a7,7,0,0,0,6.74,9h2.23c-.68,3.74-1.7,8.4-1.78,8.9-1.54,9.9.63,17.9,2.06,27.48A36.67,36.67,0,0,1,75.07,74c-2.1,11.89-6.67,23.45-9,35.37-4.62,23.71-6.06,48-6.61,72.09-.25,10.21-.18,20.42-.18,30.63l.06,4.53c.07,5.22-6.12,9.26-9.84,11.89C23.35,247,4.62,273.16.73,305.51A104.77,104.77,0,0,0,0,317.77v273a33,33,0,0,0,33,33H198.57c18.25,0,40.46-14.79,40.46-33V460.47q0-71.13.45-142.23C239.6,302.88,239.64,286.58,233,272.37Zm-2,215.77a6.85,6.85,0,0,1-6.85,6.85H178.42c-11.24,13.82-33.31,23.21-58.7,23.21S72.27,508.81,61,495H17.14a6.86,6.86,0,0,1-6.85-6.78L8.57,312.4a6.85,6.85,0,0,1,6.85-6.91H65.21c12.06-11.33,32-18.75,54.51-18.75s42.45,7.42,54.51,18.75h49.86a6.85,6.85,0,0,1,6.85,6.85Z"/></g></g></svg>