<svg xmlns="http://www.w3.org/2000/svg" viewBox="0 0 42.51 44.76"><defs><style>.cls-1{fill:#88009d;}</style></defs><g id="Layer_2" data-name="Layer 2"><g id="Master_Nectaron_Nav" data-name="Master Nectaron Nav"><path class="cls-1" d="M3.45,8.86A23.43,23.43,0,0,0,.86,15.18,29,29,0,0,0,0,22.27a29.6,29.6,0,0,0,.86,7.15,24,24,0,0,0,2.57,6.4,20.73,20.73,0,0,0,10.44,8.94V0A20.9,20.9,0,0,0,7.79,3.67,21.72,21.72,0,0,0,3.45,8.86Z"/><path class="cls-1" d="M34.72,41.07a22,22,0,0,0,4.34-5.25,23.68,23.68,0,0,0,2.59-6.4,29.11,29.11,0,0,0,.86-7.15,28.51,28.51,0,0,0-.86-7.09,23.43,23.43,0,0,0-2.59-6.32,21.72,21.72,0,0,0-4.34-5.19A20.9,20.9,0,0,0,28.64,0V44.76A20.73,20.73,0,0,0,34.72,41.07Z"/></g></g></svg>