<svg xmlns="http://www.w3.org/2000/svg" viewBox="0 0 34.21 44.76"><defs><style>.cls-1{fill:#88009d;}</style></defs><g id="Layer_2" data-name="Layer 2"><g id="Master_Nectaron_Nav" data-name="Master Nectaron Nav"><path class="cls-1" d="M7.79,3.67A21.72,21.72,0,0,0,3.45,8.86,23.43,23.43,0,0,0,.86,15.18,29,29,0,0,0,0,22.27a29.6,29.6,0,0,0,.86,7.15,24,24,0,0,0,2.57,6.4,20.73,20.73,0,0,0,10.44,8.94V0A20.9,20.9,0,0,0,7.79,3.67Z"/><polygon class="cls-1" points="34.21 16.6 34.21 0.91 19.27 0.91 33.68 16.6 34.21 16.6"/><polygon class="cls-1" points="34.21 43.74 34.21 28.05 33.68 28.05 19.27 43.74 34.21 43.74"/></g></g></svg>