<svg xmlns="http://www.w3.org/2000/svg" viewBox="0 0 805.51 805.51"><defs><style>.cls-1{fill:#fff;}</style></defs><g id="Layer_2" data-name="Layer 2"><g id="Layer_1-2" data-name="Layer 1"><path class="cls-1" d="M402.76,0A3.82,3.82,0,0,0,399,3.81v245.5a3.81,3.81,0,1,0,7.62,0V3.81A3.82,3.82,0,0,0,402.76,0Z"/><path class="cls-1" d="M354.36,72.79a3.82,3.82,0,0,0-1.53-2.49,3.74,3.74,0,0,0-2.83-.68A3.8,3.8,0,0,0,346.83,74L375,251.8a3.8,3.8,0,0,0,3.76,3.22,3,3,0,0,0,.6-.05,3.82,3.82,0,0,0,3.17-4.37Z"/><path class="cls-1" d="M329.7,267.77a3.78,3.78,0,0,0,3.4,2.08,3.71,3.71,0,0,0,1.73-.42,3.83,3.83,0,0,0,1.67-5.13L254.77,103.89a3.82,3.82,0,0,0-6.8,3.47Z"/><path class="cls-1" d="M291.56,297a3.82,3.82,0,1,0,5.4-5.4L169.65,164.25a3.9,3.9,0,0,0-5.39,0,3.81,3.81,0,0,0,0,5.39Z"/><path class="cls-1" d="M269.67,331.92a3.76,3.76,0,0,0-1.9-2.22L107.36,248a3.81,3.81,0,1,0-3.46,6.8L264.31,336.5a3.81,3.81,0,0,0,5.36-4.58Z"/><path class="cls-1" d="M254.29,376.51A3.76,3.76,0,0,0,251.8,375L74,346.83A3.83,3.83,0,0,0,69.62,350a3.8,3.8,0,0,0,3.17,4.36l177.82,28.16a4,4,0,0,0,.6.05,3.82,3.82,0,0,0,3.08-6.06Z"/><path class="cls-1" d="M250.61,423,72.79,451.15a3.81,3.81,0,0,0,.59,7.58,3,3,0,0,0,.6-.05L251.8,430.52a3.81,3.81,0,1,0-1.19-7.53Z"/><path class="cls-1" d="M267.21,468.79a3.79,3.79,0,0,0-2.9.23L103.9,550.76a3.81,3.81,0,0,0,1.73,7.21,3.71,3.71,0,0,0,1.73-.42l160.41-81.74a3.8,3.8,0,0,0-.56-7Z"/><path class="cls-1" d="M169.65,641.26,297,514a3.81,3.81,0,0,0,0-5.39,3.9,3.9,0,0,0-5.39,0L164.26,635.86a3.81,3.81,0,1,0,5.39,5.4Z"/><path class="cls-1" d="M334.83,536.07a3.81,3.81,0,0,0-5.13,1.67L248,698.16a3.82,3.82,0,0,0-.23,2.91,3.76,3.76,0,0,0,1.9,2.22,3.81,3.81,0,0,0,5.13-1.66l81.74-160.41A3.86,3.86,0,0,0,334.83,536.07Z"/><path class="cls-1" d="M379.35,550.54a3.83,3.83,0,0,0-4.36,3.17L346.83,731.53a3.81,3.81,0,0,0,3.18,4.36,4,4,0,0,0,.6,0,3.79,3.79,0,0,0,3.76-3.22l28.16-177.82A3.83,3.83,0,0,0,379.35,550.54Z"/><path class="cls-1" d="M430.53,553.71A3.81,3.81,0,0,0,423,554.9l28.16,177.82a3.8,3.8,0,0,0,3.76,3.22,3,3,0,0,0,.6-.05,3.82,3.82,0,0,0,3.17-4.36Z"/><path class="cls-1" d="M475.82,537.74a3.8,3.8,0,0,0-2.22-1.9,3.73,3.73,0,0,0-2.91.23A3.83,3.83,0,0,0,469,541.2l81.73,160.41a3.78,3.78,0,0,0,3.4,2.08,3.71,3.71,0,0,0,1.73-.42,3.83,3.83,0,0,0,1.67-5.13Z"/><path class="cls-1" d="M514,508.56a3.81,3.81,0,1,0-5.39,5.39L635.87,641.26a3.82,3.82,0,1,0,5.4-5.4Z"/><path class="cls-1" d="M538.3,468.79a3.81,3.81,0,0,0-.55,7l160.41,81.73a3.81,3.81,0,0,0,5.36-4.57,3.8,3.8,0,0,0-1.9-2.22L541.21,469A3.73,3.73,0,0,0,538.3,468.79Z"/><path class="cls-1" d="M551.23,429a3.76,3.76,0,0,0,2.49,1.52l177.82,28.16a4,4,0,0,0,.6.05,3.82,3.82,0,0,0,.59-7.59L554.91,423a3.83,3.83,0,0,0-4.36,3.17A3.75,3.75,0,0,0,551.23,429Z"/><path class="cls-1" d="M554.91,382.52l177.82-28.16a3.82,3.82,0,0,0-1.19-7.54L553.72,375a3.81,3.81,0,0,0,.59,7.58A3,3,0,0,0,554.91,382.52Z"/><path class="cls-1" d="M703.52,252.54a3.82,3.82,0,0,0-2.45-4.81,3.78,3.78,0,0,0-2.91.23L537.74,329.69a3.83,3.83,0,0,0-1.67,5.13,3.78,3.78,0,0,0,3.4,2.08,3.71,3.71,0,0,0,1.73-.42l160.42-81.74A3.7,3.7,0,0,0,703.52,252.54Z"/><path class="cls-1" d="M635.87,164.25,508.56,291.56A3.81,3.81,0,1,0,514,297L641.27,169.64a3.81,3.81,0,0,0-5.4-5.39Z"/><path class="cls-1" d="M470.69,269.44a3.81,3.81,0,0,0,5.13-1.66l81.74-160.41a3.82,3.82,0,0,0-1.66-5.13,3.8,3.8,0,0,0-5.13,1.66L469,264.31A3.81,3.81,0,0,0,470.69,269.44Z"/><path class="cls-1" d="M426.17,255a4,4,0,0,0,.59,0,3.78,3.78,0,0,0,3.76-3.22L458.68,74a3.82,3.82,0,0,0-7.54-1.19L423,250.6A3.84,3.84,0,0,0,426.17,255Z"/><path class="cls-1" d="M351.71,258a3.8,3.8,0,0,0,3.63,2.64,3.73,3.73,0,0,0,1.18-.19,3.82,3.82,0,0,0,2.45-4.8L283.11,22.16a3.81,3.81,0,1,0-7.25,2.35Z"/><path class="cls-1" d="M309.48,280.86a3.82,3.82,0,0,0,3.09,1.57,3.75,3.75,0,0,0,2.24-.73,3.81,3.81,0,0,0,.85-5.33L171.35,77.76a3.82,3.82,0,0,0-6.17,4.49Z"/><path class="cls-1" d="M77.76,171.35,276.38,315.66a3.77,3.77,0,0,0,2.24.73,3.85,3.85,0,0,0,3.09-1.57,3.81,3.81,0,0,0-.85-5.33L82.24,165.19a3.81,3.81,0,1,0-4.48,6.16Z"/><path class="cls-1" d="M22.16,283.1,255.65,359a3.94,3.94,0,0,0,1.18.19,3.82,3.82,0,0,0,3.4-5.55,3.75,3.75,0,0,0-2.22-1.89L24.52,275.85a3.81,3.81,0,0,0-2.36,7.25Z"/><path class="cls-1" d="M253.13,402.76a3.82,3.82,0,0,0-3.81-3.81H3.81a3.81,3.81,0,1,0,0,7.62H249.32A3.82,3.82,0,0,0,253.13,402.76Z"/><path class="cls-1" d="M260.23,451.9a3.81,3.81,0,0,0-4.57-5.36L22.17,522.41a3.82,3.82,0,0,0,1.18,7.45,3.69,3.69,0,0,0,1.18-.19L258,453.81A3.85,3.85,0,0,0,260.23,451.9Z"/><path class="cls-1" d="M281.71,490.71a3.81,3.81,0,0,0-5.33-.85L77.76,634.16a3.82,3.82,0,0,0,2.25,6.9,3.75,3.75,0,0,0,2.24-.73L280.87,496A3.82,3.82,0,0,0,281.71,490.71Z"/><path class="cls-1" d="M316.34,526.3a3.81,3.81,0,0,0-6.85-1.64L165.18,723.27a3.81,3.81,0,0,0,3.08,6.06,3.85,3.85,0,0,0,3.09-1.57L315.66,529.14A3.89,3.89,0,0,0,316.34,526.3Z"/><path class="cls-1" d="M356.51,545.06a3.83,3.83,0,0,0-4.8,2.45L275.85,781a3.82,3.82,0,0,0,2.45,4.81,4,4,0,0,0,1.18.19,3.81,3.81,0,0,0,3.63-2.64L359,549.87A3.82,3.82,0,0,0,356.51,545.06Z"/><path class="cls-1" d="M402.76,552.38a3.82,3.82,0,0,0-3.81,3.81V801.7a3.81,3.81,0,0,0,7.62,0V556.2A3.82,3.82,0,0,0,402.76,552.38Z"/><path class="cls-1" d="M453.8,547.51a3.83,3.83,0,0,0-4.8-2.45,3.76,3.76,0,0,0-2.22,1.9,3.82,3.82,0,0,0-.23,2.91l75.87,233.49a3.8,3.8,0,0,0,3.63,2.64,3.69,3.69,0,0,0,1.18-.19,3.76,3.76,0,0,0,2.22-1.9,3.82,3.82,0,0,0,.23-2.91Z"/><path class="cls-1" d="M496,524.65a3.82,3.82,0,0,0-6.17,4.49l144.3,198.62a3.85,3.85,0,0,0,3.09,1.57,3.75,3.75,0,0,0,2.24-.73,3.81,3.81,0,0,0,.85-5.33Z"/><path class="cls-1" d="M727.75,634.16,529.14,489.86a3.8,3.8,0,0,0-5.33.84,3.82,3.82,0,0,0,.84,5.33l198.62,144.3a3.77,3.77,0,0,0,2.24.73,3.85,3.85,0,0,0,3.09-1.57,3.81,3.81,0,0,0-.85-5.33Z"/><path class="cls-1" d="M783.36,522.41,549.87,446.54a3.82,3.82,0,0,0-2.35,7.26L781,529.66a3.69,3.69,0,0,0,1.18.19,3.82,3.82,0,0,0,3.4-5.55A3.86,3.86,0,0,0,783.36,522.41Z"/><path class="cls-1" d="M801.7,398.94H556.2a3.81,3.81,0,0,0,0,7.62H801.7a3.81,3.81,0,0,0,0-7.62Z"/><path class="cls-1" d="M545.29,353.61a3.82,3.82,0,0,0,3.4,5.55,3.69,3.69,0,0,0,1.18-.19l233.49-75.86a3.76,3.76,0,0,0,2.22-1.9,3.82,3.82,0,0,0,.23-2.91,3.76,3.76,0,0,0-1.9-2.22,3.82,3.82,0,0,0-2.91-.23L547.51,351.71A3.8,3.8,0,0,0,545.29,353.61Z"/><path class="cls-1" d="M523.81,314.81a3.85,3.85,0,0,0,3.09,1.57,3.75,3.75,0,0,0,2.24-.73l198.62-144.3a3.81,3.81,0,0,0,.85-5.33,3.82,3.82,0,0,0-5.33-.84L524.66,309.48A3.81,3.81,0,0,0,523.81,314.81Z"/><path class="cls-1" d="M489.18,279.22a3.8,3.8,0,0,0,1.52,2.49,3.75,3.75,0,0,0,2.24.73,3.83,3.83,0,0,0,3.09-1.57L640.33,82.25a3.82,3.82,0,1,0-6.17-4.49L489.86,276.38A3.82,3.82,0,0,0,489.18,279.22Z"/><path class="cls-1" d="M449,260.45a4,4,0,0,0,1.17.19A3.81,3.81,0,0,0,453.8,258L529.67,24.51a3.81,3.81,0,1,0-7.25-2.36L446.55,255.64A3.82,3.82,0,0,0,449,260.45Z"/></g></g></svg>