<svg xmlns="http://www.w3.org/2000/svg" viewBox="0 0 82.51 87.48"><defs><style>.cls-1{fill:#ffe700;}</style></defs><g id="Layer_2" data-name="Layer 2"><g id="Imagery"><path class="cls-1" d="M82.51,43.64q0,18.74-11.92,31.29A38.77,38.77,0,0,1,41.31,87.48q-17.48,0-29.24-11.86Q0,63.54,0,44.91,0,26.06,12,13T41.31,0A39,39,0,0,1,70.59,12.44Q82.5,24.89,82.51,43.64ZM63,57q0-17.79-10.59-30.5Q41.09,12.82,23,12.71a46.6,46.6,0,0,0-3.6,18.22q0,17.79,10.49,30.61Q41.3,75.31,59.42,75.41A49.2,49.2,0,0,0,63,57Z"/></g></g></svg>