<svg xmlns="http://www.w3.org/2000/svg" viewBox="0 0 176.57 55.46"><defs><style>.cls-1{fill:#88009d;}.cls-2{fill:#ff1900;}.cls-3{fill:none;stroke:#ff1900;stroke-miterlimit:10;stroke-width:1.18px;}</style></defs><g id="Layer_2" data-name="Layer 2"><g id="Imagery"><rect class="cls-1" width="176.57" height="55.46" rx="5.44"/><path class="cls-2" d="M30.56,36.93V20.31H41v3.05H33.79v3.79h6.5V30h-6.5v3.84H41v3Z"/><path class="cls-2" d="M55,36.93,47.43,25.14V36.93H44.2V20.31h4l6.91,11v-11h3.24V36.93Z"/><path class="cls-2" d="M69.16,23.38V36.93H65.9V23.38H60.65V20.31H74.41v3.07Z"/><path class="cls-2" d="M76.68,36.93V20.31H87.09v3.05H79.92v3.79h6.49V30H79.92v3.84h7.17v3Z"/><path class="cls-2" d="M95.27,30.53H93.58v6.4H90.32V20.31h6.49a5,5,0,0,1,5.3,5.11,4.71,4.71,0,0,1-3.54,4.71l3.56,6.8H98.52Zm.93-2.79a2.33,2.33,0,1,0,0-4.62H93.58v4.62Z"/><line class="cls-3" x1="115.47" y1="29.96" x2="148.4" y2="29.96"/><polygon class="cls-2" points="144.48 34.8 143.68 33.93 147.95 29.96 143.68 25.99 144.48 25.12 149.68 29.96 144.48 34.8"/></g></g></svg>