<svg xmlns="http://www.w3.org/2000/svg" viewBox="0 0 312.48 58.58"><defs><style>.cls-1{fill:#88009d;}</style></defs><g id="Layer_2" data-name="Layer 2"><g id="Imagery"><path class="cls-1" d="M22.43,41.62H3.53L7.82,36V6.44L3.53.77h18.9L18.09,6.44V36Z"/><path class="cls-1" d="M64.92.77,60.63,6.44V33.86l4.23,3.06L54.75,43l-20-29.16V36l4.34,5.67H25.49L29.78,36V6.49L25.9.77H38L55.62,26.56V6.44L51.28.77Z"/><path class="cls-1" d="M97.65,5.46l-9.91,6L77.68,5.57a7.07,7.07,0,0,0-.3,1.89q0,3,6.23,7a78,78,0,0,1,9,6.44q4.69,4.39,4.69,9.65a10.8,10.8,0,0,1-4.11,8.71,14.88,14.88,0,0,1-9.78,3.39,27.71,27.71,0,0,1-15.93-5.1l10.26-6.13,10.63,7a6.68,6.68,0,0,0,1.07-3.37q0-3.07-5.92-7.46Q76.41,22.37,75,21q-4.55-4.44-4.55-9.14a10.89,10.89,0,0,1,3.78-8.61A14.25,14.25,0,0,1,84,0a17.75,17.75,0,0,1,7.15,1.48A33.36,33.36,0,0,1,97.65,5.46Z"/><path class="cls-1" d="M136.51,10.67,124.72,4.34V36l4.34,5.67h-18.9L114.45,36V4.34l-11.74,6.38V.77h33.8Z"/><path class="cls-1" d="M159,41.62H140.09L144.38,36V6.44L140.09.77H159l-4.34,5.67V36Z"/><path class="cls-1" d="M201.47.77l-4.29,5.67V33.86l4.24,3.06L191.31,43l-20-29.16V36l4.34,5.67H162.05L166.34,36V6.49L162.45.77h12.11l17.62,25.79V6.44L187.84.77Z"/><path class="cls-1" d="M240.33,7.81l-9.49,5.62a25.31,25.31,0,0,0-8.18-5.67,15.91,15.91,0,0,0-5.77-1.53,22.72,22.72,0,0,0-1.73,8.53,19.77,19.77,0,0,0,6.64,15.06q6.78,6.34,17,6.39-6.94,6-13.73,6a17.88,17.88,0,0,1-13.69-6.12,21.34,21.34,0,0,1-5.62-15,21.1,21.1,0,0,1,5.64-14.91A18.1,18.1,0,0,1,225.22.15Q234,.15,240.33,7.81Z"/><path class="cls-1" d="M277.72,10.67l-11.8-6.33V36l4.34,5.67h-18.9L255.65,36V4.34l-11.74,6.38V.77h33.81Z"/><path class="cls-1" d="M311,5.46l-9.91,6L291,5.57a7.07,7.07,0,0,0-.3,1.89q0,3,6.23,7a78,78,0,0,1,9,6.44q4.69,4.39,4.69,9.65a10.8,10.8,0,0,1-4.11,8.71,14.88,14.88,0,0,1-9.78,3.39,27.71,27.71,0,0,1-15.93-5.1l10.27-6.13,10.62,7a6.68,6.68,0,0,0,1.07-3.37q0-3.07-5.92-7.46-7.15-5.31-8.53-6.64-4.54-4.44-4.55-9.14a10.89,10.89,0,0,1,3.78-8.61A14.25,14.25,0,0,1,297.27,0a17.75,17.75,0,0,1,7.15,1.48A33.36,33.36,0,0,1,311,5.46Z"/><rect class="cls-1" y="55.3" width="312.48" height="3.28"/></g></g></svg>