<svg xmlns="http://www.w3.org/2000/svg" viewBox="0 0 46.53 43.37"><defs><style>.cls-1{fill:#88009d;}</style></defs><g id="Layer_2" data-name="Layer 2"><g id="Master_Nectaron_Nav" data-name="Master Nectaron Nav"><polygon class="cls-1" points="0 0.54 0 1.07 7.76 11.78 7.76 32.12 0 42.83 0 43.37 18.47 43.37 18.47 0.54 0 0.54"/><path class="cls-1" d="M38.25,18.1a10.42,10.42,0,0,0,2.15-3.35,10.26,10.26,0,0,0,0-7.55,10.62,10.62,0,0,0-2.17-3.37,12,12,0,0,0-3.59-2.55,15.15,15.15,0,0,0-5-1.28V21.9a15.21,15.21,0,0,0,5.06-1.29A11.52,11.52,0,0,0,38.25,18.1Z"/><polygon class="cls-1" points="46.53 43.37 46.53 42.83 30.2 25.7 29.66 25.7 29.66 43.37 46.53 43.37"/></g></g></svg>