<svg xmlns="http://www.w3.org/2000/svg" viewBox="0 0 803.75 161.42"><defs><style>.cls-1{font-size:40.19px;font-family:Harbour-Light;font-weight:300;letter-spacing:0.08em;}.cls-1,.cls-2{fill:#ff2000;}</style></defs><g id="Layer_2" data-name="Layer 2"><g id="Imagery"><text class="cls-1" transform="translate(342.63 36.17)">MEET</text><path class="cls-2" d="M796.06,82l-1.15-.62v3.09l.42.55h-1.84l.41-.55V81.4l-1.14.63v-1h3.3Z"/><path class="cls-2" d="M799.22,85l.42-.55v-2.1l-1.15,1.82-1.17-1.85v2.13l.42.55h-1.33l.42-.55v-2.8l-.32-.31,1-.57,1.33,2.12.84-1.33-.42-.55h1.85l-.43.56v2.88l.43.55h-1.85"/><path class="cls-2" d="M796.91,89.77a6.84,6.84,0,1,1,6.84-6.84A6.85,6.85,0,0,1,796.91,89.77Zm0-13A6.12,6.12,0,1,0,803,82.93,6.13,6.13,0,0,0,796.91,76.81Z"/><polygon class="cls-2" points="113.34 76.03 113.34 77.07 128.46 97.92 128.46 137.54 113.34 158.4 113.34 159.44 149.31 159.44 149.31 76.03 113.34 76.03"/><polygon class="cls-2" points="170.89 100.53 154.94 117.73 170.89 134.62 171.73 134.62 171.73 100.53 170.89 100.53"/><polygon class="cls-2" points="158.28 76.03 185.39 104.28 186.32 104.28 186.32 76.03 158.28 76.03"/><polygon class="cls-2" points="188.93 159.44 188.93 128.89 187.89 128.89 159.84 159.44 188.93 159.44"/><path class="cls-2" d="M226,81.4a41.88,41.88,0,0,0-8.45,10.11,45.6,45.6,0,0,0-5.05,12.3,56,56,0,0,0-1.67,13.82,57.24,57.24,0,0,0,1.67,13.92,47.32,47.32,0,0,0,5,12.46,40.63,40.63,0,0,0,20.33,17.41V74.25A40.61,40.61,0,0,0,226,81.4Z"/><polygon class="cls-2" points="277.49 106.58 277.49 76.03 248.39 76.03 276.44 106.58 277.49 106.58"/><polygon class="cls-2" points="277.49 159.44 277.49 128.89 276.44 128.89 248.39 159.44 277.49 159.44"/><polygon class="cls-2" points="414.08 159.44 414.08 158.4 396.88 136.09 379.57 158.4 379.57 159.44 414.08 159.44"/><polygon class="cls-2" points="416.37 96.15 436.08 137.54 421.59 158.4 421.59 159.44 476.01 159.44 476.01 158.4 459.23 137.54 428.89 73.42 416.37 96.15"/><polygon class="cls-2" points="491.01 76.03 491.01 77.07 506.13 97.92 506.13 137.54 491.01 158.4 491.01 159.44 526.98 159.44 526.98 76.03 491.01 76.03"/><path class="cls-2" d="M565.51,110.23a20,20,0,0,0-.06-27.79,23.1,23.1,0,0,0-7-5,29,29,0,0,0-9.8-2.51v42.65a29.6,29.6,0,0,0,9.85-2.5A23,23,0,0,0,565.51,110.23Z"/><polygon class="cls-2" points="581.62 159.44 581.62 158.4 549.81 125.03 548.77 125.03 548.77 159.44 581.62 159.44"/><path class="cls-2" d="M598.65,91.51a45.62,45.62,0,0,0-5.06,12.3,56.49,56.49,0,0,0-1.67,13.82,57.73,57.73,0,0,0,1.67,13.92,47.32,47.32,0,0,0,5,12.46,40.6,40.6,0,0,0,20.34,17.41V74.25a40.67,40.67,0,0,0-11.84,7.15A41.61,41.61,0,0,0,598.65,91.51Z"/><path class="cls-2" d="M659.54,154.23A42.56,42.56,0,0,0,668,144,46.13,46.13,0,0,0,673,131.55a57.73,57.73,0,0,0,1.67-13.92A56.49,56.49,0,0,0,673,103.81,45.62,45.62,0,0,0,668,91.51a41.84,41.84,0,0,0-8.44-10.11,40.8,40.8,0,0,0-11.84-7.15v87.17A40.25,40.25,0,0,0,659.54,154.23Z"/><polygon class="cls-2" points="34.51 154.4 34.51 154.4 14.14 127.96 14.14 144.14 3.08 158.4 3.08 159.44 37.59 159.44 37.59 158.4 34.51 154.4"/><polygon class="cls-2" points="81.2 134.69 27.65 76.03 0 76.03 0 77.07 75.86 160.48 81.2 160.48 81.2 134.69"/><polygon class="cls-2" points="61.26 76.03 61.26 77.07 78.47 99.38 95.78 77.07 95.78 76.03 61.26 76.03"/><polygon class="cls-2" points="762.55 160.48 767.89 160.48 767.89 134.69 714.34 76.03 686.69 76.03 686.69 77.07 762.55 160.48"/><polygon class="cls-2" points="766.18 99.38 783.49 77.07 783.49 76.03 748.98 76.03 748.98 77.07 766.18 99.38"/><rect class="cls-2" x="301.48" y="75.87" width="73.2" height="18.56"/><polygon class="cls-2" points="312.53 158.24 312.53 159.28 363.62 159.28 363.62 158.24 348.5 137.39 348.5 109.23 327.65 109.23 327.65 137.39 312.53 158.24"/><polygon class="cls-2" points="701.86 127.96 701.86 144.14 690.8 158.4 690.8 159.44 725.31 159.44 725.31 158.4 722.22 154.38 701.86 127.96"/></g></g></svg>