<svg xmlns="http://www.w3.org/2000/svg" viewBox="0 0 428.84 88.97"><defs><style>.cls-1{fill:#ffe700;}</style></defs><g id="Layer_2" data-name="Layer 2"><g id="Imagery"><path class="cls-1" d="M78.27,76.58,57.51,89,30.19,47.24V74.35l9,11.76H0L8.9,74.35V13.13L0,1.38H39.61q13.88,0,23,7.94,8.58,7.52,8.58,17.79,0,14.73-17.05,21.61l12.82,19.7ZM50.52,35.48a22.32,22.32,0,0,0-6-15,23.82,23.82,0,0,0-14.35-8.2V37.71l17.68,7.2A17.76,17.76,0,0,0,50.52,35.48Z"/><path class="cls-1" d="M166.6,43.64q0,18.74-11.91,31.29A38.81,38.81,0,0,1,125.4,87.48q-17.48,0-29.23-11.86Q84.1,63.54,84.09,44.91q0-18.85,12-31.88T125.4,0a39,39,0,0,1,29.29,12.44Q166.6,24.89,166.6,43.64ZM147.11,57q0-17.79-10.59-30.5Q125.2,12.82,107.08,12.71a46.6,46.6,0,0,0-3.6,18.22q0,17.79,10.48,30.61,11.45,13.77,29.55,13.87A49.2,49.2,0,0,0,147.11,57Z"/><path class="cls-1" d="M258.85,1.38l-9,11.75V55.29a31,31,0,0,1-9.43,22.82,33.39,33.39,0,0,1-46.44,0,31.07,31.07,0,0,1-9.48-22.88v-42L175.6,1.38h39.19l-9,11.75V54.86a23.07,23.07,0,0,0,6,16.21,20,20,0,0,0,15.36,6.56h1.38V13.13l-8.9-11.75Z"/><path class="cls-1" d="M347,1.38l-8.9,11.75V70l8.79,6.35L325.89,89,284.48,28.49V74.35l9,11.76H265.2l8.9-11.76V13.24L266.05,1.38h25.1l36.54,53.48V13.13l-9-11.75Z"/><path class="cls-1" d="M428.84,45.44q0,16.62-10.59,28.06-11.76,12.61-31.78,12.61h-33l8.9-11.76V13.13l-8.9-11.75h32q19.71,0,32.1,14A43.73,43.73,0,0,1,428.84,45.44Zm-19.17,7.41A40.22,40.22,0,0,0,403,30a34.92,34.92,0,0,0-19.39-14.19V67.15L404,75.62A47.61,47.61,0,0,0,409.67,52.85Z"/></g></g></svg>