<svg xmlns="http://www.w3.org/2000/svg" viewBox="0 0 253.43 57.81"><defs><style>.cls-1{fill:#88009d;}</style></defs><g id="Layer_2" data-name="Layer 2"><g id="Imagery"><path class="cls-1" d="M33.81,9.91,22,3.57V35.19l4.34,5.66H7.46l4.29-5.66V3.57L0,10V0H33.81Z"/><path class="cls-1" d="M77.52,40.85H58.63l4.29-5.66V21.91h-11V35.19l4.34,5.66H37.38l4.29-5.66V5.67L37.38,0h18.9L51.94,5.67V17h11V5.67L58.63,0H77.52L73.18,5.67V35.19Z"/><path class="cls-1" d="M108.88,40.85H80.64l4.29-5.66V5.67L80.64,0h28.24V9.91L95.19,3.52V16.39h10.16v9L95.19,19.92V37.33L108.88,31Z"/><path class="cls-1" d="M154,9.91,140.28,3.52V16.39h10.17v9l-10.17-5.46V35.19l4.34,5.66H125.73L130,35.19V5.67L125.73,0H154Z"/><path class="cls-1" d="M186.3,40.85H158.06l4.29-5.66V5.67L158.06,0H186.3V9.91L172.61,3.52V16.39h10.16v9l-10.16-5.46V37.33L186.3,31Z"/><path class="cls-1" d="M218.62,40.85H190.38l4.29-5.66V5.67L190.38,0h28.24V9.91L204.94,3.52V16.39H215.1v9l-10.16-5.46V37.33L218.62,31Z"/><path class="cls-1" d="M251,40.85H222.71L227,35.19V5.67L222.71,0H241.6l-4.34,5.67V37.33L251,31Z"/><rect class="cls-1" x="2.56" y="54.53" width="250.88" height="3.28"/></g></g></svg>