<svg xmlns="http://www.w3.org/2000/svg" viewBox="0 0 804.87 64.49"><defs><style>.cls-1{fill:#88009d;}</style></defs><g id="Layer_2" data-name="Layer 2"><g id="Imagery"><path class="cls-1" d="M353.46,20.22a7.13,7.13,0,0,1-2.24,5.34,7.52,7.52,0,0,1-5.4,2.16,14.94,14.94,0,0,1-8.36-2.39l3.55-3,6.7,3.85a6.14,6.14,0,0,0,2-4.15A7.26,7.26,0,0,0,347,16.76l-5-4.18a7.29,7.29,0,0,1-2.69-5.28,7.16,7.16,0,0,1,2.09-5.54A6.79,6.79,0,0,1,346.22,0a11.58,11.58,0,0,1,6.84,2.32L349.8,5.18l-6.3-3.49a7,7,0,0,0-1,3.42q0,2.57,2.86,5,2.64,2.13,5.26,4.22A8,8,0,0,1,353.46,20.22Z"/><path class="cls-1" d="M379.38,13.74a14.78,14.78,0,0,1-3.29,9.7,9.89,9.89,0,0,1-15.9,0,14.83,14.83,0,0,1-3.28-9.7,14.82,14.82,0,0,1,3.28-9.69,9.87,9.87,0,0,1,15.9,0A14.77,14.77,0,0,1,379.38,13.74Zm-4,1.76A14.19,14.19,0,0,0,373,7q-2.79-3.78-8.17-3.78a14.54,14.54,0,0,0-2.32.2A21.37,21.37,0,0,0,360.79,12a14.17,14.17,0,0,0,2.39,8.53q2.79,3.79,8.17,3.79a15.81,15.81,0,0,0,2.32-.2A21.42,21.42,0,0,0,375.4,15.5Z"/><path class="cls-1" d="M405,.46l-2.16,2.73V17.73a9.64,9.64,0,0,1-2.72,6.87,8.93,8.93,0,0,1-13.08,0,9.68,9.68,0,0,1-2.72-6.91V3.19L382.2.46h8.33l-2.15,2.73V15.63A8.67,8.67,0,0,0,391,22.17a8,8,0,0,0,5.81,2.39,8.25,8.25,0,0,0,2-.26V3.19L396.71.46Z"/><path class="cls-1" d="M429,.46l-2.16,2.73V22.44l2,1.79L425,27.52,411.71,6.9V24.3L413.9,27h-6.54l2.16-2.72V3.52l-2-3.06h4.72l12.38,19.19V3.19L422.47.46Z"/><path class="cls-1" d="M452.41,14.14A13.88,13.88,0,0,1,449.62,23a10.34,10.34,0,0,1-8.6,4h-9.33l2.16-2.72V3.19L431.69.46h9.1a10.39,10.39,0,0,1,8.66,4.29A15.14,15.14,0,0,1,452.41,14.14Zm-3.92,1.26A13,13,0,0,0,446,7.24a13,13,0,0,0-8.1-4.72V22.41l8.6,1.82Q448.5,21.08,448.49,15.4Z"/><path class="cls-1" d="M16.41,39.26,8.87,42.14,25,58.22l3.43.38-5.89,5.89-.38-3.43L6,45,3.12,52.54,0,49.42,13.29,36.13Z"/><path class="cls-1" d="M49.55,37.42l-5.89,5.9-.4-3.45L36.1,32.71l-6.76,6.76,7.16,7.16L40,47l-5.89,5.9-.4-3.45L18.73,34.54l-3.45-.4,5.89-5.89.4,3.45,6.22,6.22,6.76-6.76-6.22-6.22-3.45-.4,5.89-5.89.4,3.45L46.1,37Z"/><path class="cls-1" d="M62.2,24.77,51.45,35.52l-.4-3.45L36.12,17.15l-3.45-.4L43.42,6l3.12,3.12L38,13.3l7.37,7.37,4.77-4.77L53,18.81l-6.76,2.77,8.66,8.66,4.15-8.61Z"/><path class="cls-1" d="M782.48,38.32a14.79,14.79,0,0,1-9.18,4.53,9.87,9.87,0,0,1-11.24-11.24,14.79,14.79,0,0,1,4.53-9.18,14.85,14.85,0,0,1,9.18-4.53A9.87,9.87,0,0,1,787,29.15,14.8,14.8,0,0,1,782.48,38.32Zm-4.06-1.57A14.12,14.12,0,0,0,782.76,29q.71-4.65-3.1-8.45a14.26,14.26,0,0,0-1.78-1.5,21.23,21.23,0,0,0-7.3,4.86,14.12,14.12,0,0,0-4.34,7.72q-.71,4.65,3.09,8.45a16.39,16.39,0,0,0,1.79,1.5A21.32,21.32,0,0,0,778.42,36.75Z"/><path class="cls-1" d="M801.75,45.06l-4.18-8.59-7.37,7.37L795,48.6l-2.92,2.92-2.76-6.76-7.66,7.65-.4,3.45L775.34,50l3.45-.4,14.93-14.93.4-3.45,10.75,10.75Z"/></g></g></svg>