<svg xmlns="http://www.w3.org/2000/svg" viewBox="0 0 801.87 87.8"><defs><style>.logo-fill{fill:#ffffff;}</style></defs><g id="Layer_2" data-name="Layer 2"><g id="Layer_1-2" data-name="Layer 1"><path class="logo-fill" d="M794.2,8.58,793.05,8V11l.42.56h-1.84l.42-.56V8l-1.15.63v-1h3.3Z"/><path class="logo-fill" d="M797.35,11.6l.42-.56V8.94l-1.14,1.82-1.18-1.84V11l.42.56h-1.32L795,11V8.25l-.31-.31,1-.57,1.34,2.12.83-1.33-.42-.54h1.84l-.42.55V11l.42.56h-1.84"/><path class="logo-fill" d="M795.05,16.31a6.83,6.83,0,1,1,6.82-6.83A6.84,6.84,0,0,1,795.05,16.31Zm0-12.93a6.11,6.11,0,1,0,6.1,6.1A6.11,6.11,0,0,0,795.05,3.38Z"/><polygon class="logo-fill" points="113.07 2.6 113.07 3.64 128.16 24.45 128.16 63.98 113.07 84.78 113.07 85.82 148.96 85.82 148.96 2.6 113.07 2.6"/><polygon class="logo-fill" points="170.49 27.05 154.58 44.21 170.49 61.06 171.33 61.06 171.33 27.05 170.49 27.05"/><polygon class="logo-fill" points="157.91 2.6 184.95 30.79 185.89 30.79 185.89 2.6 157.91 2.6"/><polygon class="logo-fill" points="188.49 85.82 188.49 55.34 187.45 55.34 159.47 85.82 188.49 85.82"/><path class="logo-fill" d="M225.5,8a42.13,42.13,0,0,0-8.43,10.09,45.7,45.7,0,0,0-5,12.27,56.25,56.25,0,0,0-1.67,13.79A57.4,57.4,0,0,0,212,58a47,47,0,0,0,5,12.43A40.54,40.54,0,0,0,237.31,87.8V.83A40.67,40.67,0,0,0,225.5,8Z"/><polygon class="logo-fill" points="276.84 33.08 276.84 2.6 247.81 2.6 275.8 33.08 276.84 33.08"/><polygon class="logo-fill" points="276.84 85.82 276.84 55.34 275.8 55.34 247.81 85.82 276.84 85.82"/><polygon class="logo-fill" points="413.11 85.82 413.11 84.78 395.95 62.52 378.68 84.78 378.68 85.82 413.11 85.82"/><polygon class="logo-fill" points="415.4 22.68 435.06 63.98 420.6 84.78 420.6 85.82 474.9 85.82 474.9 84.78 458.15 63.98 427.88 0 415.4 22.68"/><polygon class="logo-fill" points="489.86 2.6 489.86 3.64 504.94 24.45 504.94 63.98 489.86 84.78 489.86 85.82 525.75 85.82 525.75 2.6 489.86 2.6"/><path class="logo-fill" d="M564.18,36.72a20,20,0,0,0,0-27.72,22.86,22.86,0,0,0-7-4.94,28.87,28.87,0,0,0-9.78-2.5V44.11a29.35,29.35,0,0,0,9.83-2.5A22.74,22.74,0,0,0,564.18,36.72Z"/><polygon class="logo-fill" points="580.26 85.82 580.26 84.78 548.53 51.49 547.49 51.49 547.49 85.82 580.26 85.82"/><path class="logo-fill" d="M597.25,18.05a45.4,45.4,0,0,0-5,12.27,56.25,56.25,0,0,0-1.66,13.79A57.4,57.4,0,0,0,592.2,58a47,47,0,0,0,5,12.43A40.54,40.54,0,0,0,617.48,87.8V.83A40.67,40.67,0,0,0,605.67,8,41.85,41.85,0,0,0,597.25,18.05Z"/><path class="logo-fill" d="M658,80.62a42.19,42.19,0,0,0,8.42-10.2A46.1,46.1,0,0,0,671.47,58a57.4,57.4,0,0,0,1.66-13.88,56.25,56.25,0,0,0-1.66-13.79,45.73,45.73,0,0,0-5.05-12.27A41.85,41.85,0,0,0,658,8,40.81,40.81,0,0,0,646.19.83v87A40.28,40.28,0,0,0,658,80.62Z"/><polygon class="logo-fill" points="34.43 80.79 34.43 80.79 14.11 54.41 14.11 70.56 3.08 84.78 3.08 85.82 37.51 85.82 37.51 84.78 34.43 80.79"/><polygon class="logo-fill" points="81.02 61.13 27.59 2.6 0 2.6 0 3.64 75.68 86.86 81.02 86.86 81.02 61.13"/><polygon class="logo-fill" points="61.12 2.6 61.12 3.64 78.28 25.9 95.55 3.64 95.55 2.6 61.12 2.6"/><polygon class="logo-fill" points="760.77 86.86 766.1 86.86 766.1 61.13 712.67 2.6 685.08 2.6 685.08 3.64 760.77 86.86"/><polygon class="logo-fill" points="764.39 25.9 781.66 3.64 781.66 2.6 747.23 2.6 747.23 3.64 764.39 25.9"/><rect class="logo-fill" x="300.77" y="2.44" width="73.02" height="18.52"/><polygon class="logo-fill" points="311.8 84.62 311.8 85.66 362.77 85.66 362.77 84.62 347.69 63.82 347.69 35.73 326.88 35.73 326.88 63.82 311.8 84.62"/><polygon class="logo-fill" points="700.22 54.41 700.22 70.56 689.18 84.78 689.18 85.82 723.62 85.82 723.62 84.78 720.53 80.77 700.22 54.41"/></g></g></svg>